<?xml version="1.0" encoding="utf-8"?>
<svg version="1.1" id="Calque_1" xmlns="http://www.w3.org/2000/svg" xmlns:xlink="http://www.w3.org/1999/xlink" x="0px" y="0px"
     viewBox="0 0 100 100" style="enable-background:new 0 0 100 100;" xml:space="preserve">
<style type="text/css">
	.st0{fill:#2E79F5;}
</style>
    <g>
	<path class="st0" d="M89.9,47.2c0.1,1.9-2.1,2.9-3.4,1.6L68.9,31.1c-10.4-10.4-27.3-10.4-37.7,0L13.5,48.8
		c-1.3,1.3-3.5,0.3-3.4-1.6c0.7-10.1,5.2-20,13.6-27.3c15-13.1,37.7-13.1,52.7,0C84.7,27.2,89.2,37.1,89.9,47.2z"/>
        <path class="st0" d="M30,56v25c0,1.6-1.8,2.6-3.2,1.6c-1.8-1.3-3.5-2.7-5.1-4.3c-2.9-2.9-5.3-6.2-7.2-9.7c-0.4-0.8-0.2-1.7,0.4-2.3
		l11.7-11.7C27.8,53.3,30,54.2,30,56z"/>
        <path class="st0" d="M56.7,39.7v48c0,1-0.8,1.9-1.8,2c-3.2,0.4-6.5,0.4-9.7,0c-1-0.1-1.8-1-1.8-2v-48c0-0.8,0.5-1.5,1.2-1.8
		c3.5-1.6,7.5-1.6,10.9,0C56.2,38.2,56.7,38.9,56.7,39.7z"/>
        <path class="st0" d="M85.1,66.2c0.6,0.6,0.8,1.5,0.4,2.3c-1.8,3.5-4.2,6.8-7.2,9.7c-1.6,1.6-3.3,3.1-5.1,4.3
		c-1.3,0.9-3.2,0-3.2-1.6V56c0-1.8,2.2-2.7,3.4-1.4L85.1,66.2z"/>
</g>
</svg>
